# xmcd
#
# Track frame offsets:
#	150
#	14050
#	26380
#	53856
#	66633
#	79032
#	94171
#	110312
#	126588
#	141785
#	153639
#	170112
#	183491
#	193821
#	207137
#	218282
#	230489
#	245590
#
# Disc length: 3479 seconds
#
# Revision: 0
# Processed by: cddbd v1.5.2PL0 Copyright (c) Steve Scherf et al.
# Submitted via: EasyCDDAExtractor 10.2.0.1
#
DISCID=0a0d9512
DTITLE=Various Artist - Nashville Gospel-Christmas Special
DYEAR=2004
DGENRE=Gospel
TTITLE0=Judy DeRamus - Even Santa Oughta Know
TTITLE1=Sharon Marsh - This Is What Christmas Is For
TTITLE2=Jim Pigg - O Holy Night
TTITLE3=Joan Gregory  - Children Go Where I Send Thee
TTITLE4=Tommy Smith - Jesus Is Tjhe Reason
TTITLE5=Irene Goodnight - Christmas Eve
TTITLE6=Joe Price - Behold The Lamb
TTITLE7=Judy DeRamus - On A Snowy Christmas Night
TTITLE8=Judy DeRamus - White Christmas
TTITLE9=Judy DeRamus - Winter Wonderland
TTITLE10=Judy DeRamus - Missing You At Christmas Time
TTITLE11=Southern Dogwood - Do You Believe In Christmas 
TTITLE12=Southern Dogwood - Happy Birthday Jesus
TTITLE13=Southern Dogwood - I Want To Tell The World
TTITLE14=Southern Dogwood - In Bethleham
TTITLE15=Southern Dogwood - Ordinary Man
TTITLE16=Southern Dogwood - Will There Ever Be A Silent Night
TTITLE17=Southern Dogwood - When They The Star
EXTD=
EXTT0=
EXTT1=
EXTT2=
EXTT3=
EXTT4=
EXTT5=
EXTT6=
EXTT7=
EXTT8=
EXTT9=
EXTT10=
EXTT11=
EXTT12=
EXTT13=
EXTT14=
EXTT15=
EXTT16=
EXTT17=
PLAYORDER=
